<svg width="264" height="126" viewBox="0 0 264 126" fill="none" xmlns="http://www.w3.org/2000/svg">
<path d="M150.249 49.9121C147.657 51.3989 145.473 52.9252 142.907 53.7672C137.157 55.6356 132.526 54.2146 128.907 49.3595C126.592 46.2543 125.447 42.3071 122.079 39.9519C121.197 39.3335 121.894 38.5835 122.158 37.9783C122.579 37.0046 123.184 37.5835 123.71 37.9388C124.96 38.794 126.394 39.2282 127.855 39.4782C133.841 40.465 137.802 37.3993 138.368 31.4127C138.539 29.6364 138.473 27.8733 138.183 26.1365C137.499 21.8735 134.67 19.3736 130.381 19.2815C127.118 19.2157 123.868 19.3341 120.605 19.2288C119.092 19.1894 118.5 19.5315 118.513 21.2025C118.579 31.9916 118.592 42.7807 118.513 53.5699C118.5 56.0435 119.631 56.9119 121.921 56.8198C122.723 56.7935 123.658 56.6093 123.618 57.9776C123.565 59.3592 122.592 59.0565 121.829 59.0565C117.921 59.0829 114.013 59.0565 110.092 59.0697C109.158 59.0697 108.447 58.9908 108.5 57.7671C108.553 56.5566 109.421 56.7803 110.092 56.8198C112.803 56.9645 113.671 55.5303 113.671 53.0436C113.632 42.4386 113.618 31.8337 113.684 21.2288C113.684 19.6236 113.21 19.1499 111.632 19.2157C108.75 19.3341 105.855 19.3078 102.974 19.2157C101.474 19.1762 100.816 19.5578 100.829 21.2156C100.882 32.0048 100.842 42.7939 100.829 53.583C100.829 55.7409 101.763 56.8856 104.027 56.8329C104.842 56.8198 106.027 56.3987 105.934 58.0171C105.855 59.3855 104.855 59.0302 104.092 59.0434C100.277 59.0697 96.461 59.0697 92.6453 59.0434C91.8822 59.0434 90.8822 59.346 90.8165 57.9908C90.7507 56.6356 91.7243 56.7803 92.5269 56.8329C95.0795 56.9777 96.0268 55.6093 96.0531 53.2673C96.1058 49.1753 96.29 45.0833 95.7637 41.0045C95.211 36.702 92.369 33.86 88.3692 33.5968C84.8693 33.36 81.8825 35.6099 81.1062 39.9387C80.0799 45.7017 79.3168 51.6226 83.7509 56.5829C84.2509 57.1487 84.2377 57.504 83.7114 57.9118C83.0799 58.4118 82.4483 59.2144 81.5273 58.5434C80.4878 57.7803 79.3958 57.004 78.5405 56.0566C74.0012 50.9778 73.7907 41.7545 77.9879 36.373C81.7509 31.5574 88.0665 30.1496 93.5269 32.8995C94.2505 33.2679 94.9611 33.6626 96.0926 34.2547C95.9742 30.0311 96.3558 26.1628 95.8163 22.3077C95.5531 20.3999 94.4874 19.2683 92.4743 19.2683C84.2903 19.2683 76.1195 19.2683 67.4488 19.2683C71.8434 24.1761 73.0407 29.5969 71.6592 35.5178C70.1724 41.886 65.8172 45.1228 59.3306 45.9254C60.3569 48.6358 61.6989 50.9515 63.5147 52.9515C66.4619 56.1882 68.7645 56.5829 72.6723 54.6093C73.2381 54.3198 73.7249 53.6883 74.3433 54.4514C75.0406 55.2935 74.3564 55.7672 73.817 56.2935C71.0013 59.0302 66.212 59.596 62.6726 57.6092C59.9885 56.0961 58.1069 53.8199 56.6859 51.1489C55.3176 48.5963 53.8966 46.0701 51.594 44.2412C50.3572 43.2676 50.6861 42.2018 51.3308 41.3334C52.1861 40.1624 52.7255 41.6097 53.2782 41.9255C60.0937 45.7675 66.9356 42.0965 67.2645 34.3468C67.383 31.4653 67.4751 28.5838 66.6856 25.755C65.462 21.3867 62.9884 19.3736 58.4754 19.2552C55.4097 19.1762 52.3308 19.2946 49.2651 19.2157C47.8178 19.1762 47.331 19.663 47.331 21.1367C47.3704 31.9258 47.3704 42.7149 47.331 53.5041C47.331 55.8461 48.3573 56.9513 50.7256 56.8066C51.5282 56.754 52.5019 56.5961 52.4755 57.9382C52.4492 59.2802 51.4361 59.0039 50.6598 59.0039C46.8441 59.0302 43.0285 59.0434 39.2128 59.0434C38.4365 59.0434 37.4497 59.3723 37.3576 58.0171C37.2655 56.7014 38.147 56.7408 39.0023 56.7935C41.7785 56.9645 42.568 55.3198 42.568 52.9515C42.568 43.2807 42.6206 33.5968 42.5416 23.9261C42.5022 20.2025 41.3312 19.2552 37.5681 19.2288C32.8314 19.1938 30.4587 21.5182 30.4499 26.2023C30.4499 34.952 30.4894 43.6886 30.4104 52.4383C30.3841 55.1488 30.871 57.1224 34.1998 56.7935C35.0945 56.7014 35.6208 56.9908 35.5419 58.0303C35.4761 58.8987 35.0156 59.0697 34.2524 59.0565C30.0683 59.0171 25.8711 59.0171 21.687 59.0171C20.9634 59.0171 20.4108 58.8592 20.4371 57.9513C20.4634 57.1356 20.8581 56.925 21.6344 56.7803C25.6343 56.0303 25.6869 55.9382 25.7001 51.8068C25.7132 48.649 25.7132 45.478 25.7001 42.3202C25.7001 41.636 25.9501 40.6887 24.779 40.6755C22.6344 40.6492 20.5029 40.6492 18.3582 40.6887C17.1477 40.715 17.5293 41.715 17.5161 42.3597C17.4635 44.307 17.5424 46.2675 17.4635 48.2148C17.2398 53.333 14.8451 55.6619 9.79266 55.7935C4.6744 55.9119 0.661369 52.8462 0.161384 48.4253C-0.575435 41.9387 3.12182 38.1888 10.49 38.2546C12.7268 38.2677 13.6083 37.9125 13.2794 35.3862C12.9505 32.9389 11.49 34.0836 10.4769 34.1626C5.92437 34.5442 2.46395 32.9389 0.845579 29.5575C-0.772791 26.1628 -0.00966632 21.7419 2.63499 19.242C5.50332 16.5316 10.6084 15.8605 14.1083 17.7157C16.6609 19.071 17.3977 21.413 17.4372 24.0313C17.5161 28.1233 17.5293 32.2153 17.4635 36.3073C17.4372 37.6888 17.7529 38.2151 19.2792 38.2546C25.7001 38.4651 25.7132 38.5309 25.7001 32.2153C25.7001 29.0575 25.6737 25.8997 25.529 22.7419C25.4237 20.6104 24.2527 19.3473 22.0291 19.1367C21.1476 19.0578 19.6608 19.6236 19.9239 17.8473C20.1608 16.2553 21.5423 16.9394 22.4238 16.9263C35.8313 16.8737 49.2388 16.8605 62.6463 16.8605C72.4223 16.8605 82.1983 16.821 91.9743 16.9C93.869 16.9131 94.9084 16.7684 94.5532 14.4C94.2769 12.5975 94.5137 10.7028 95.04 8.88706C96.711 2.93988 101.119 -0.152131 107.803 0.00575874C112.671 0.124176 117.395 4.22931 118.513 9.43967C118.842 10.9791 119.21 12.6369 118.947 14.1369C118.487 16.7815 119.684 16.9131 121.789 16.9C134.447 16.821 147.117 16.8605 159.775 16.8605C160.617 16.8605 161.446 16.8868 162.288 16.8605C163.196 16.8342 163.933 16.8868 163.893 18.1499C163.854 19.2683 163.183 19.2815 162.406 19.2683C162.222 19.2683 162.038 19.2683 161.854 19.2683C159.735 19.3999 156.972 18.3604 155.657 19.6894C154.117 21.2419 155.157 24.0971 155.13 26.3734C155.051 35.0178 155.157 43.6754 155.064 52.3199C155.038 55.1488 155.525 57.175 158.985 56.8198C159.735 56.7408 160.222 56.9908 160.235 57.8855C160.248 58.925 159.67 59.0829 158.801 59.0829C154.709 59.0565 150.604 59.0829 146.512 59.0829C145.854 59.0829 145.157 59.1092 145.078 58.1881C145.012 57.4645 145.196 57.0303 146.052 56.8066C150.565 55.6488 150.578 55.5961 150.262 49.9252L150.249 49.9121ZM130.368 42.0044C133.499 51.2673 140.618 53.662 148.473 48.2937C149.841 47.3595 150.446 46.3333 150.407 44.6359C150.301 39.2414 150.394 33.86 150.367 28.4654C150.367 26.3339 150.551 24.1892 150.051 22.084C149.696 20.6104 148.986 19.4262 147.341 19.3604C144.696 19.2683 142.052 19.3341 139.197 19.3341C147.104 29.5969 142.104 40.7282 130.368 42.0044ZM106.461 16.9C106.461 16.9 106.461 16.8737 106.461 16.8605C108.316 16.8605 110.171 16.8079 112.013 16.8737C113.224 16.9263 113.921 16.6237 113.987 15.2553C114.118 12.1764 113.947 9.12389 112.803 6.24241C111.763 3.65038 109.79 2.05833 106.869 1.96622C103.934 1.87412 102 3.40039 100.737 5.92663C99.4609 8.49234 99.5267 11.2949 99.2899 14.058C99.0925 16.4131 100.027 17.1894 102.29 16.9131C103.658 16.7552 105.066 16.8868 106.448 16.8868L106.461 16.9ZM13.1478 25.5576C13.1741 23.5708 12.9768 21.6498 11.7663 19.9788C10.8189 18.6499 9.52951 18.071 7.89798 18.2947C6.33224 18.5183 5.35859 19.492 4.95071 20.913C4.056 24.0182 3.97706 27.1891 5.1086 30.2285C6.27962 33.3863 9.66109 33.7942 11.6873 31.1101C12.9241 29.4785 13.1741 27.5444 13.1478 25.5576ZM13.161 47.1227C13.1741 45.5438 13.082 43.9518 12.3584 42.5176C11.5163 40.8597 10.2926 39.5835 8.27955 39.7282C6.22698 39.8729 5.18755 41.3597 4.77966 43.1623C4.20073 45.7938 4.1481 48.5042 4.77966 51.1357C5.16123 52.7278 6.09541 54.0172 7.89798 54.2804C9.76634 54.5567 11.0821 53.7409 12.0426 52.162C13.0162 50.5963 13.1478 48.8727 13.161 47.0964V47.1227Z" fill="white"/>
<path d="M197.326 26.5576C197.326 25.1629 197.418 24.1367 197.313 23.1235C197.05 20.5447 195.813 19.1368 192.945 19.2158C187.734 19.3473 182.524 19.2815 177.301 19.2158C176.445 19.2158 175.064 19.821 175.09 18.0316C175.116 16.2553 176.485 16.8737 177.34 16.8737C205.089 16.8474 232.825 16.8474 260.574 16.8737C261.429 16.8737 262.798 16.2685 262.772 18.0711C262.745 19.8736 261.377 19.2158 260.535 19.2289C255.877 19.2947 251.219 19.3605 246.575 19.2158C244.548 19.15 243.996 19.821 244.141 21.742C244.298 23.7683 244.18 25.8208 244.18 28.2286C247.601 26.5182 250.851 25.755 254.351 26.7945C260.693 28.6891 264.232 36.1494 262.285 43.715C260.627 50.1358 254.864 53.991 248.917 52.5963C248.364 52.4647 247.193 52.8463 247.443 51.5963C247.64 50.6621 248.246 50.5043 249.311 50.649C253.588 51.2411 256.061 49.5701 257.14 45.4386C258.127 41.5966 258.153 37.702 257.193 33.8469C256.272 30.1891 253.969 28.2286 250.851 28.2944C247.693 28.3602 245.496 30.2944 244.614 34.0048C243.812 37.3994 244.259 40.8598 244.193 44.2939C244.127 47.2675 244.246 50.2543 244.154 53.2279C244.075 55.662 244.956 56.9514 247.548 56.7672C248.364 56.7146 249.311 56.6093 249.259 57.9382C249.193 59.254 248.219 59.0171 247.43 59.0171C243.522 59.0303 239.614 59.0171 235.693 59.0171C234.93 59.0171 234.154 59.0961 234.128 57.9777C234.101 57.2277 234.325 56.8856 235.18 56.7014C239.483 55.833 239.47 55.7936 239.246 50.7148C232.588 54.1489 226.641 53.7542 222.352 47.0833C219.207 42.2019 219.865 34.6758 223.51 30.3207C227.154 25.9524 232.009 25.2945 239.18 28.1892C239.233 28.0313 239.338 27.8734 239.338 27.7155C239.654 19.6368 239.246 19.2289 231.207 19.2289C226.931 19.2289 222.641 19.2947 218.365 19.1894C216.628 19.15 215.931 19.5447 215.944 21.4788C216.049 31.9917 216.023 42.5045 215.97 53.0173C215.97 55.4909 216.734 56.9909 219.497 56.7804C220.378 56.7146 221.194 56.7146 221.115 58.0172C221.036 59.1487 220.299 59.0435 219.549 59.0435C215.641 59.0435 211.734 59.0435 207.813 59.0435C207.036 59.0435 206.05 59.3461 205.984 57.9909C205.918 56.6751 206.826 56.7277 207.668 56.8067C210.247 57.0041 211.234 55.5436 211.247 53.2673C211.299 42.4782 211.273 31.6891 211.326 20.8999C211.326 19.7157 210.905 19.1631 209.721 19.2552C209.536 19.2684 209.352 19.2552 209.168 19.2552C204.554 19.0798 202.243 21.2903 202.234 25.8866C202.234 28.3076 202.129 30.7286 202.247 33.1364C202.352 35.2547 200.879 34.6758 199.8 34.689C198.721 34.689 197.471 35.2153 197.392 33.1232C197.182 27.8865 193.129 25.2814 188.116 26.8997C185.603 27.7155 184.129 30.0312 184.406 32.7548C184.682 35.4389 186.353 37.1494 189.116 37.3862C191.984 37.6231 194.879 37.7152 197.76 37.8994C205.01 38.3731 208.773 44.965 205.563 51.5437C202.063 58.7014 192.379 61.3592 184.8 57.083C178.261 53.3857 175.103 47.3201 173.524 40.2546C173.393 39.6888 173.103 38.8862 174.024 38.6494C175.222 38.3467 175.432 39.2415 175.577 40.0835C176.445 44.9255 178.656 49.0306 182.406 52.2279C186.103 55.3857 190.379 56.5699 195.142 55.2278C200.024 53.8463 202.747 48.8727 201.3 44.0439C200.497 41.3598 198.379 40.3598 195.76 40.1756C192.708 39.9651 189.616 40.3993 186.577 39.7151C185.103 39.3862 183.708 38.9388 182.445 38.1099C178.537 35.531 178.366 30.2023 182.221 27.5576C186.077 24.913 190.366 24.6761 194.8 25.7813C195.603 25.9787 196.379 26.255 197.392 26.5576H197.326ZM225.339 39.5309C225.246 42.0572 225.51 44.5571 226.523 46.886C227.549 49.2543 229.259 50.82 232.023 50.8727C234.891 50.9253 236.812 49.4517 237.812 46.9123C239.667 42.1624 239.641 37.281 238.049 32.4917C237.207 29.9391 235.299 28.3734 232.404 28.3076C229.391 28.2418 227.549 29.847 226.457 32.4522C225.51 34.7153 225.246 37.0968 225.339 39.5309Z" fill="white"/>
<path d="M168.517 79.8435C172.653 79.8435 176.809 79.5409 180.925 79.904C187.441 80.5093 191.86 84.8268 192.465 90.5767C193.111 96.7302 190.084 101.048 183.467 103.368C180.743 104.316 177.919 104.578 175.054 104.578C168.194 104.558 168.194 104.599 168.214 111.62C168.214 113.758 168.396 115.917 168.255 118.035C167.992 121.465 169.162 123.119 172.875 122.777C173.964 122.676 176.204 121.647 176.163 124.027C176.123 125.964 174.166 125.076 173.076 125.097C167.649 125.198 162.222 125.157 156.795 125.137C155.867 125.137 154.556 125.419 154.556 123.927C154.556 122.434 155.887 122.595 156.795 122.736C160.991 123.362 161.819 121.263 161.738 117.531C161.536 107.403 161.516 97.2749 161.738 87.1469C161.819 83.3136 160.649 81.4777 156.694 81.74C155.827 81.8005 154.374 82.1031 154.556 80.5295C154.717 79.2181 156.028 79.44 156.997 79.44C160.85 79.44 164.704 79.44 168.557 79.44C168.557 79.5812 168.557 79.7224 168.557 79.8435H168.517ZM168.234 92.4127C168.234 94.975 168.234 97.5372 168.234 100.079C168.234 101.088 168.275 101.835 169.647 102.198C179.916 104.901 187.219 98.2232 184.96 88.0952C183.83 82.9908 179.593 80.9531 171.886 81.5786C166.338 82.0224 168.739 86.2189 168.255 89.0031C168.053 90.1127 168.214 91.2627 168.234 92.4127Z" fill="white"/>
<path d="M80.5925 119.932C79.8258 121.042 79.3013 122.272 78.3934 123.079C75.1452 125.964 71.2715 126.227 67.6399 124.33C61.547 121.142 60.1145 115.433 60.4575 109.078C60.7803 103.065 63.2821 98.3847 69.1127 96.0242C73.8337 94.1075 77.6065 95.9839 81.4802 100.079C81.4802 94.5111 81.5004 89.7699 81.4802 85.0085C81.46 82.2445 79.3618 82.0024 77.3241 81.7603C76.5171 81.6594 75.468 81.8612 75.4276 80.6305C75.4074 79.4603 76.396 79.4401 77.2434 79.3393C77.3846 79.3393 77.5258 79.3392 77.667 79.2989C83.7196 78.4112 86.7392 81.0407 86.7258 87.1874C86.7258 96.8716 86.6854 106.556 86.7258 116.26C86.7258 119.387 86.2819 122.918 91.1845 122.756C91.8301 122.736 92.1933 123.18 92.2135 123.846C92.2135 124.774 91.6485 125.077 90.8617 125.077C88.4407 125.097 85.9994 125.299 83.5986 125.056C81.0363 124.794 82.7714 122.111 80.6328 119.952L80.5925 119.932ZM81.5004 110.429C81.5206 107.423 81.2785 104.478 79.6644 101.814C78.1513 99.3531 76.0732 97.6584 73.0671 97.9812C69.9197 98.3242 67.9829 100.261 67.2566 103.368C66.147 108.15 66.1066 112.931 67.4785 117.652C68.2452 120.295 69.9803 122.131 72.7846 122.595C75.6697 123.059 77.6671 121.485 79.2811 119.347C81.2784 116.724 81.4802 113.577 81.5205 110.429H81.5004Z" fill="white"/>
<path d="M36.5499 101.028C39.1929 98.3645 41.5534 96.226 45.1042 95.8628C51.0761 95.2374 54.9498 97.8198 55.5752 103.751C56.0594 108.412 55.9182 113.153 55.9989 117.854C56.0392 120.356 55.7568 122.978 59.5497 122.696C60.3769 122.635 60.962 122.999 60.9216 123.886C60.8813 124.734 60.3164 125.077 59.4892 125.077C55.4945 125.077 51.4998 125.077 47.5051 125.077C46.7183 125.077 46.0726 124.935 45.9516 124.048C45.8507 123.221 46.2341 122.656 47.1218 122.696C51.0761 122.877 50.9147 120.154 50.8743 117.491C50.8138 113.778 50.8945 110.066 50.713 106.374C50.5314 102.682 49.3612 99.575 44.963 99.2119C41.2709 98.9093 37.6192 101.451 36.8727 105.426C35.9244 110.349 36.328 115.372 36.4894 120.356C36.5499 122.171 37.8412 122.676 39.4552 122.696C40.2824 122.696 41.2911 122.595 41.3516 123.826C41.4121 125.016 40.5244 125.137 39.6166 125.137C35.7631 125.137 31.9096 125.137 28.0561 125.137C27.1482 125.137 26.2807 125.056 26.2807 123.866C26.2807 122.595 27.2693 122.696 28.1166 122.696C30.6385 122.696 31.1631 121.142 31.1631 119.024C31.1631 113.879 31.1631 108.755 31.2236 103.61C31.2438 100.806 30.8 98.4251 27.2693 98.2233C26.543 98.183 25.7965 97.9207 25.8974 96.9724C26.0184 95.9637 26.9263 96.1856 27.5719 96.1251C28.4193 96.0242 29.2868 96.0444 30.1341 96.004C33.6177 95.8023 35.7765 97.4836 36.6105 101.048L36.5499 101.028Z" fill="white"/>
<path d="M10.1809 102.421C10.1809 97.2963 9.93883 92.1516 10.2616 87.0472C10.5037 83.1534 9.15195 81.4788 5.29847 81.7008C4.43094 81.7613 3.03887 82.2455 3.11957 80.5911C3.1801 79.078 4.51165 79.4613 5.43972 79.4613C10.7055 79.4613 15.9914 79.4613 21.2571 79.5824C22.2255 79.5824 23.9001 78.9368 23.8194 80.8131C23.7589 82.2859 22.3062 81.8017 21.4387 81.7613C18.0291 81.5797 16.6976 82.9314 16.7581 86.5025C16.9598 97.034 16.9397 107.586 16.7581 118.117C16.6976 121.607 17.8274 123.141 21.3984 122.798C22.3264 122.697 24.001 122.193 23.8194 124.129C23.6782 125.602 22.3264 125.138 21.4387 125.138C16.0317 125.158 10.6046 125.138 5.19762 125.138C4.20903 125.138 3.03886 125.3 3.13973 123.746C3.22044 122.455 4.33009 122.636 5.07658 122.757C9.85812 123.524 10.4634 120.861 10.2616 116.987C10.0195 112.165 10.2011 107.303 10.2011 102.461L10.1809 102.421Z" fill="white"/>
<path d="M125.099 95.3184C132.948 95.3587 136.034 98.3648 136.034 105.608C136.034 109.885 135.994 114.162 136.055 118.439C136.095 120.88 136.357 123.241 139.848 122.515C140.594 122.353 141.3 122.252 141.562 123.16C141.825 124.028 141.098 124.431 140.554 124.835C137.971 126.792 134.481 126.308 132.403 123.201C131.112 121.264 130.365 121.486 128.913 122.777C125.442 125.864 121.448 126.59 116.949 125.42C114.205 124.694 112.369 123.18 111.723 120.416C111.078 117.612 112.187 115.352 114.225 113.557C117.897 110.309 122.477 108.755 127.117 108.372C131.313 108.029 131.132 105.749 130.829 102.965C130.547 100.423 128.912 98.7885 126.592 98.0824C124.07 97.3157 121.508 97.5376 119.249 99.1718C117.937 100.12 118.623 101.21 119.148 102.178C120.096 103.933 120.096 105.446 118.341 106.637C116.969 107.585 115.556 107.302 114.386 106.314C112.934 105.083 112.591 103.429 113.398 101.674C115.254 97.5578 118.926 96.1859 123.001 95.4798C123.848 95.3385 124.716 95.3587 125.099 95.3385V95.3184ZM130.91 112.871C129.861 112.326 132.262 109.683 129.558 110.026C125.947 110.49 122.154 111.136 119.37 113.799C117.11 115.958 116.505 118.823 118.321 121.526C120.197 124.31 122.981 123.826 125.563 122.575C129.437 120.679 130.87 117.289 130.91 112.871Z" fill="white"/>
<path d="M216.715 110.227C216.736 119.266 211.248 125.44 203.077 125.561C195.249 125.682 189.438 119.104 189.459 110.167C189.479 101.491 195.188 95.1363 202.956 95.0959C211.086 95.0555 216.695 101.209 216.715 110.227ZM195.209 110.187C195.128 113.052 195.451 115.856 196.54 118.519C197.71 121.344 199.748 123.281 202.915 123.361C206.083 123.442 208.464 121.768 209.533 118.883C211.631 113.274 211.752 107.524 209.715 101.834C208.645 98.8485 206.244 97.2748 203.178 97.2345C200.051 97.1941 197.892 98.9897 196.661 101.855C195.531 104.498 195.168 107.302 195.188 110.167L195.209 110.187Z" fill="white"/>
<path d="M239.372 94.6725C239.715 98.3444 239.977 100.887 240.179 103.429C240.239 104.215 240.703 105.204 239.574 105.628C238.161 106.132 237.879 104.942 237.516 104.074C235.841 99.9988 233.077 97.5374 228.417 97.7392C225.572 97.8602 223.252 98.9497 222.747 101.915C222.243 104.982 224.664 106.092 227.085 106.798C229.123 107.383 231.261 107.706 233.339 108.129C239.473 109.36 242.903 113.012 242.257 117.592C241.611 122.131 236.567 125.742 231.08 125.561C229.062 125.5 227.125 125.056 225.37 124.007C224.341 123.402 223.433 122.878 222.384 124.007C220.104 126.449 219.378 125.218 219.297 122.635C219.237 120.497 219.116 118.358 219.116 116.22C219.116 115.453 218.571 114.364 219.741 114.041C221.053 113.678 221.315 114.848 221.779 115.736C222.485 117.128 223.191 118.56 224.14 119.771C226.621 122.958 231.201 124.108 234.933 122.656C236.991 121.849 238.262 120.457 238.282 118.197C238.303 115.816 236.83 114.626 234.671 114.101C232.189 113.496 229.668 112.971 227.186 112.346C220.952 110.772 218.369 107.161 219.782 102.097C221.295 96.7304 226.702 93.9664 232.351 95.9032C234.651 96.69 236.769 97.9207 239.311 94.6523L239.372 94.6725Z" fill="white"/>
<path d="M247.24 109.905C247.24 107.626 247.2 105.346 247.24 103.086C247.301 100.625 247.664 98.0019 243.75 98.7081C243.064 98.8291 242.277 98.7081 242.257 97.6993C242.257 96.9326 242.62 96.4283 243.427 96.166C248.067 94.6528 249.278 90.7792 249.984 86.5626C250.125 85.6748 249.681 84.3029 251.174 84.2626C252.728 84.2222 252.264 85.6143 252.385 86.4818C252.486 87.188 252.425 87.8941 252.445 88.6204C252.486 93.0993 254.792 95.5405 259.366 95.9441C260.455 96.0449 261.847 95.7221 261.686 97.5581C261.544 99.0712 260.294 98.6475 259.386 98.7081C254.772 99.0981 252.466 101.66 252.466 106.395C252.466 109.804 252.466 113.214 252.466 116.644C252.466 119.226 252.809 121.668 256.016 121.97C259.002 122.232 260.193 120.114 261.101 117.713C261.585 116.422 260.858 113.658 262.937 114.243C264.672 114.747 263.38 117.189 262.937 118.702C261.625 123.241 258.074 125.662 253.716 125.158C249.338 124.653 247.341 122.071 247.26 116.725C247.22 114.445 247.26 112.165 247.26 109.905H247.24Z" fill="white"/>
<path d="M105.065 109.239C105.065 112.508 105.146 115.796 105.045 119.065C104.964 121.486 105.61 122.938 108.374 122.717C109.14 122.656 110.23 122.414 110.331 123.685C110.452 125.218 109.262 125.077 108.293 125.077C104.157 125.097 100.021 125.117 95.8853 125.117C95.0379 125.117 94.0898 125.198 94.1099 123.907C94.1099 122.656 95.0581 122.636 95.8853 122.717C99.4362 123.059 99.7994 120.8 99.7792 118.117C99.7388 113.274 99.7187 108.432 99.7792 103.59C99.7994 100.665 99.073 98.5061 95.5424 98.5868C94.5538 98.607 93.3634 98.5869 93.5046 97.1141C93.6257 95.8834 94.7152 96.2263 95.502 96.1255C101.851 95.3723 105.025 98.1766 105.025 104.539C105.025 106.112 105.025 107.666 105.025 109.239H105.065Z" fill="white"/>
<path d="M104.965 82.3657C104.642 84.4235 103.572 85.8358 101.373 85.7955C99.3961 85.7551 98.226 84.5446 98.1654 82.5472C98.1049 80.5499 99.2146 79.2587 101.172 79.0771C103.411 78.8753 104.46 80.3481 104.965 82.3657Z" fill="white"/>
</svg>
